<?xml version="1.0" encoding="UTF-8" standalone="no"?>
<svg
   xmlns:dc="http://purl.org/dc/elements/1.1/"
   xmlns:cc="http://creativecommons.org/ns#"
   xmlns:rdf="http://www.w3.org/1999/02/22-rdf-syntax-ns#"
   xmlns:svg="http://www.w3.org/2000/svg"
   xmlns="http://www.w3.org/2000/svg"
   viewBox="0 0 98.694397 113.96253"
   height="113.96253"
   width="98.694397"
   xml:space="preserve"
   id="svg2"
   version="1.1"><metadata
     id="metadata8"><rdf:RDF><cc:Work
         rdf:about=""><dc:format>image/svg+xml</dc:format><dc:type
           rdf:resource="http://purl.org/dc/dcmitype/StillImage" /></cc:Work></rdf:RDF></metadata><defs
     id="defs6"><clipPath
       id="clipPath22"
       clipPathUnits="userSpaceOnUse"><path
         id="path20"
         d="M 0,85.472 H 74.021 V 0 H 0 Z" /></clipPath></defs><g
     transform="matrix(1.3333333,0,0,-1.3333333,0,113.96253)"
     id="g10"><g
       transform="translate(37.0107,85.4721)"
       id="g12"><path
         id="path14"
         style="fill:#7050e5;fill-opacity:1;fill-rule:nonzero;stroke:none"
         d="M 0,0 -37.011,-21.368 V -64.104 L 0,-85.472 37.01,-64.104 v 42.736 z" /></g><g
       id="g16"><g
         clip-path="url(#clipPath22)"
         id="g18"><g
           transform="translate(60.4469,61.5434)"
           id="g24"><path
             id="path26"
             style="fill:#ffffff;fill-opacity:1;fill-rule:nonzero;stroke:none"
             d="m 0,0 c 0,0 -5.718,-0.058 -10.361,-3.251 -4.644,-3.192 -13.003,-12.422 -13.003,-12.422 0,0 -5.746,-6.037 -12.771,-8.126 -5.05,-1.568 -10.738,-1.278 -10.738,-1.278 v -12.538 c 0,0 8.475,0.29 11.435,0.87 2.961,0.581 8.823,1.626 14.164,6.735 5.34,5.107 11.087,10.796 13.003,12.944 1.915,2.148 4.701,4.005 5.804,4.295 1.103,0.291 2.467,0.407 2.467,0.407 z" /></g><path
           id="path28"
           style="fill:#f69220;fill-opacity:1;fill-rule:nonzero;stroke:none"
           d="M 60.613,23.929 H 47.61 v 13.003 h 13.003 z" /></g></g></g></svg>